<?xml version="1.0" encoding="UTF-8"?>
<svg id="Layer_2" data-name="Layer 2" xmlns="http://www.w3.org/2000/svg" viewBox="0 0 1466.73 293.81">
  <defs>
    <style>
      .cls-1 {
        fill: #fff5f0;
      }
    </style>
  </defs>
  <g id="Layer_1-2" data-name="Layer 1">
    <path class="cls-1" d="m1466.73,0c-1.66,5-3.31,10-4.96,15.01-.83-.03-1.67-.04-2.5-.05-7.8-.04-15.26,1-23.06,1.54-8.85.6-16.53.07-25.14,2.55-17.07,4.92-33.53,11.35-51.53,12.04-2.28.09-4.55.09-6.83.05-1.62-.92-3.5-.53-5.1-1.05,2-.5,4.55-1.82,5.74-3.49-1.89.32-3.4,1.81-5.46,2.07,1.3-1.52,1.79-3.32,2.64-5.1.68-1.41,1.41-2.9,1.63-4.45-.45,2.33-3.48,7.3-5.79,7.34.39-2.26,1.45-4.36,1.99-6.53-1.18.78-2.81,2.15-3.69,3.23-.94,1.16-.82,2.77-1.62,3.93-.66-3.13.94-5.83.59-9.04,0,1.28-1.06,2.85-1.59,3.89-.4.8-.7,1.49-.82,2.4-.09.67.11,1.55-.12,2.11-.05-.39-.28-.72-.39-1.08-.18.21-.57.46-.72.77,0-.34-.14-.68-.11-1-.19.1-.39.08-.58.21.08-.33.07-.72.16-1.03-1.13,1.23-2.4,2.37-3.58,3.56.77-1.07,1.59-2.11,2.16-3.33.49-1.05.47-2.08.75-3.12-.28,1.52-2.21,2.77-3.2,3.87-.85.93-1.88,1.84-2.57,2.85-.36-1.77,1.35-3.15.86-4.91-.49,1.38-1.42,3.26-2.51,4.58-.49-1.34-.16-3.16-.22-4.58-.08-1.57.02-3.31.63-4.77-1.31,2.61-1.93,4.96-2.33,7.72-.86-1.43-.79-3.17-2.04-4.56-1.38-1.52-3.13-2-4.8-2.97.52,1.68,4.94,4.32,4.27,6.49-1.34-1.72-3.1-2.6-4.79-3.79.75,1.55,3.03,2.55,3.67,4.23-3.42-1.32-6.02-4.86-7.96-7.84.19,1.87,2.02,4.43,3.05,5.97.89,1.35,2.06,2.1,2.97,3.33-2.16-.34-3.92-2.78-5.96-3.7-2.2-.99-4.65-1.34-6.99-1.64,2.81,1.57,5.83,2.89,8.09,5.21-1.62-1.45-4.1-1.9-6.19-1.36,1.19.4,3.69,1.46,4.5,2.51-.9-.26-1.88-.32-2.89-.43-1.92-.68-3.69-1.57-5.5-2.45-.75-.36-1.5-.72-2.28-1.06-.26-.17-.52-.35-.79-.52.03.09.08.16.12.24-1.83-.75-3.76-1.37-5.97-1.62-1.37-.16-2.71-.15-4.02-.04-.1,0-.2.01-.3.02-.25.02-.5.05-.75.08-.11.01-.21.03-.31.04-4.55.59-8.87,2.15-13.68,1.99-1.1-.04-2.16,0-3.2.08h-.02c-5.28.42-9.92,2.19-15.27,3.43-16.59,3.85-32.13,2.25-48.74.22-8.21-1-16.32-2.76-24.37-4.65-12.83-3.01-25.8-10.48-38.82-5.25-10.66,4.28-21.73,9.56-31.41,15.68-5.45,3.44-10.26,5.84-17.26,3.72-1.1-.33-2.24-.86-3.39-1.49h0c-4.08-.64-6.36-2.1-10.83-4.1-6.38-2.85-11.3-6.29-17.29-9.97-6.91-4.25-11.12-5.23-18.37-2.18-3.16,1.33-6.43,2.29-9.7,3.24.3-.77.55-1.54.66-2.34-.12.65-.45,1.51-.91,2.41-1.26.37-2.51.74-3.76,1.13.32-.91.64-1.81.87-2.72-1.17.78-2.82,2.14-3.69,3.23-.15.18-.24.39-.34.59-.45.18-.91.36-1.36.55.23-2.05.92-4.03.66-6.25,0,1.28-1.06,2.85-1.59,3.89-.4.8-.7,1.49-.81,2.39-.02.22-.02.46-.02.71-.43.18-.85.36-1.29.54-.02-.15-.05-.3-.03-.44-.19.09-.39.08-.58.21.08-.34.06-.72.16-1.03-.75.81-1.56,1.59-2.37,2.37-.16.06-.32.11-.48.16.52-.73,1.03-1.47,1.42-2.3.49-1.05.47-2.08.75-3.13-.28,1.53-2.21,2.77-3.2,3.87-.73.81-1.59,1.6-2.26,2.46-.11.02-.22.04-.34.06-.09-1.61,1.34-2.92.88-4.57-.49,1.37-1.42,3.26-2.5,4.57-.49-1.34-.17-3.16-.23-4.58-.07-1.57.03-3.3.63-4.78-1.31,2.62-1.93,4.96-2.33,7.72-.86-1.44-.78-3.18-2.03-4.56-1.39-1.53-3.13-2-4.81-2.97.53,1.68,4.94,4.31,4.27,6.49-1.33-1.73-3.1-2.6-4.79-3.79.76,1.55,3.03,2.54,3.67,4.22-3.42-1.31-6.02-4.86-7.95-7.83.19,1.87,2.01,4.43,3.04,5.97.9,1.34,2.06,2.09,2.97,3.32-2.16-.33-3.93-2.78-5.97-3.69-2.2-.99-4.65-1.34-7-1.64,2.82,1.56,5.83,2.89,8.1,5.21-1.63-1.45-4.11-1.9-6.19-1.36,1.19.4,3.69,1.45,4.5,2.5-1.63-.47-3.59-.27-5.36-.91-2.29-.83-4.13-2.31-6.09-3.54.65,1.55,2.51,2.69,3.77,3.76.37.32.76.63,1.17.93-7.87-.73-15.68-2.09-22.3-3.25-10.76-1.88-21.1-1.55-31.98-1.69-2.81-.04-5.6.02-8.35.2-1.48.09-2.95.21-4.42.37-9.43,1-18.53,3.35-27.38,7.37-4.18,1.9-5.81,6.08-10.36,8.01-1.32.57-4.98,1.6-6.73,1.91-6.63,1.14-16.46,1.57-23.01.12-7.24-1.59-14.55-5.53-21.43-8.26-9.05-3.58-22.17-10.52-32-8.26-3.38.78-6.39,3.45-9.84,4.44-4.69,1.34-9.66,2.38-14.49,2.97-20.43,2.5-42.32,3.99-62.87,2.3-8.52-.7-17.15-3.02-25.65-4.92l-8.21-1.64c-2.94-.52-6.01-1.1-9.16-1.7l-1.91-.36-3.87-.72-6.06-1.06c-9.04-1.49-18.38-2.57-27.18-2.1l-7.69.85c-1.55.27-3.07.6-4.56,1.01-2.05.56-4.09,1.18-6.12,1.85l-7.92,2.7s.02.01.03.02c-9.65,3.48-19.27,7.22-29.29,8.9-2.82.48-5.63.83-8.43,1.14.74-.51,1.39-1.09,1.85-1.73-1.89.32-3.4,1.81-5.47,2.06,1.31-1.52,1.8-3.32,2.65-5.1.68-1.41,1.41-2.9,1.63-4.45-.45,2.33-3.48,7.31-5.79,7.34.39-2.26,1.45-4.36,1.99-6.53-1.17.78-2.81,2.14-3.69,3.23-.93,1.16-.82,2.77-1.62,3.92-.66-3.12.94-5.83.59-9.03,0,1.28-1.06,2.85-1.59,3.89-.4.8-.69,1.49-.81,2.39-.09.68.11,1.55-.12,2.11-.05-.39-.29-.71-.4-1.08-.18.21-.57.46-.72.77,0-.34-.14-.68-.11-1-.19.1-.39.08-.58.21.08-.34.07-.72.16-1.03-1.13,1.22-2.4,2.36-3.58,3.56.76-1.07,1.59-2.1,2.16-3.33.5-1.05.48-2.08.75-3.13-.29,1.53-2.21,2.77-3.21,3.87-.85.94-1.88,1.84-2.57,2.86-.35-1.78,1.35-3.15.86-4.91-.49,1.37-1.42,3.26-2.51,4.57-.49-1.34-.17-3.16-.23-4.58-.07-1.57.03-3.3.63-4.77-1.31,2.62-1.93,4.97-2.32,7.72-.86-1.44-.79-3.17-2.04-4.56-1.38-1.53-3.13-2-4.81-2.97.53,1.68,4.95,4.32,4.27,6.49-1.33-1.72-3.1-2.61-4.79-3.79.76,1.55,3.04,2.54,3.67,4.22-3.42-1.31-6.02-4.86-7.96-7.83.19,1.87,2.02,4.43,3.04,5.97.9,1.34,2.07,2.09,2.97,3.32-2.16-.33-3.92-2.78-5.97-3.69-2.2-.99-4.65-1.34-6.99-1.64,2.82,1.56,5.83,2.89,8.1,5.21-1.62-1.45-4.11-1.9-6.19-1.36,1.2.4,3.69,1.45,4.51,2.5-1.64-.47-3.59-.27-5.37-.91-2.29-.83-4.13-2.31-6.09-3.54.65,1.55,2.51,2.69,3.77,3.76.37.32.77.63,1.18.93-.91-.08-1.82-.15-2.74-.23-.72-.06-1.44-.12-2.16-.19-8.26-.77-15.58-3.92-22.91-6.98-5.57-2.33-11.15-4.6-17.17-5.74l-11.92-1c-6.18-.09-12.44.26-18.53.22-11.19-.07-22.38-.12-33.57-.21-7-.06-12.84.85-19.49,1.77-1.23.17-2.46.3-3.69.41-.08-.6-.15-1.19-.23-1.78l-4.02.35c.03.56.07,1.11.09,1.67-1.98.06-3.95.04-5.92-.02l-3.54-.17c-1.5-.09-2.99-.21-4.48-.34l-1.04-.1h0c-.72-.06-1.45-.13-2.18-.21,0,0,0,0,0,0l-1.04-.1c-5.99-.62-11.95-1.37-17.92-1.75-.06,0-.1.02-.11.02-.14,0-3.65-.17-3.65-.17l-.07-.08s-.01.03-.02.05c-.83-.03-1.67-.04-2.5-.05-7.8-.04-15.26,1-23.06,1.54-8.85.6-16.53.07-25.14,2.55-17.07,4.92-33.53,11.35-51.53,12.04-2.28.09-4.55.09-6.83.05-1.62-.92-3.5-.53-5.1-1.05,2-.5,4.55-1.82,5.74-3.49-1.89.32-3.4,1.81-5.46,2.07,1.3-1.52,1.79-3.32,2.64-5.1.68-1.41,1.41-2.9,1.63-4.45-.45,2.33-3.48,7.3-5.79,7.34.39-2.26,1.46-4.36,1.99-6.53-1.18.78-2.81,2.15-3.69,3.23-.94,1.16-.82,2.77-1.62,3.93-.67-3.13.94-5.83.58-9.04,0,1.28-1.06,2.85-1.59,3.89-.4.8-.7,1.49-.81,2.4-.09.67.11,1.55-.12,2.11-.05-.39-.28-.72-.39-1.08-.18.21-.57.46-.72.77,0-.34-.14-.68-.11-1-.19.1-.39.08-.59.21.08-.33.07-.72.16-1.03-1.13,1.23-2.4,2.37-3.58,3.56.77-1.07,1.59-2.11,2.16-3.33.49-1.05.47-2.08.75-3.12-.28,1.52-2.21,2.77-3.2,3.87-.85.93-1.88,1.84-2.57,2.85-.35-1.77,1.35-3.15.86-4.91-.49,1.38-1.42,3.26-2.51,4.58-.48-1.34-.16-3.16-.22-4.58-.08-1.57.02-3.31.63-4.78-1.31,2.61-1.93,4.96-2.33,7.72-.86-1.43-.79-3.17-2.04-4.56-1.38-1.52-3.13-2-4.8-2.97.52,1.68,4.94,4.32,4.27,6.49-1.34-1.72-3.1-2.6-4.79-3.79.75,1.55,3.03,2.55,3.67,4.23-3.42-1.32-6.02-4.86-7.96-7.84.19,1.87,2.02,4.43,3.05,5.97.89,1.35,2.06,2.1,2.97,3.33-2.16-.34-3.92-2.78-5.96-3.7-2.2-.99-4.65-1.34-7-1.64,2.81,1.57,5.83,2.89,8.1,5.21-1.62-1.45-4.1-1.9-6.19-1.36,1.19.4,3.69,1.46,4.5,2.51-.9-.26-1.88-.32-2.89-.43-1.92-.68-3.69-1.57-5.5-2.45-.75-.36-1.51-.72-2.28-1.06-.26-.17-.52-.35-.79-.52.03.09.08.16.12.24-1.83-.75-3.76-1.37-5.97-1.62-1.37-.16-2.71-.15-4.02-.04-.1,0-.2.01-.3.02-.25.02-.5.05-.75.08-.11.01-.21.02-.31.04-4.54.59-8.87,2.15-13.68,1.99-1.1-.04-2.16,0-3.2.08h-.02c-5.29.42-9.92,2.19-15.27,3.43-16.59,3.85-32.13,2.25-48.74.22-8.21-1-16.31-2.75-24.37-4.65-12.83-3.01-25.8-10.48-38.82-5.25-10.66,4.28-21.73,9.56-31.41,15.68-5.45,3.44-10.26,5.84-17.26,3.72-1.1-.33-2.24-.86-3.39-1.49v247.26c.44-.03.87,0,1.32,0h1465.41V15.27c-.45-.04-.9-.07-1.35-.09.45-1.33.91-2.66,1.35-4V0Z"/>
  </g>
</svg>