<?xml version="1.0" encoding="UTF-8"?>
<svg id="Layer_2" data-name="Layer 2" xmlns="http://www.w3.org/2000/svg" viewBox="0 0 37.64 40">
  <defs>
    <style>
      .cls-1 {
        fill: #989798;
        stroke-width: 0px;
      }
    </style>
  </defs>
  <g id="Layer_1-2" data-name="Layer 1">
    <path class="cls-1" d="M22.5,32.5s-.05,0-.07,0c-.37-.04-.64-.37-.6-.74.15-1.45.51-2.56,1.13-3.49.74-1.11,1.45-2.01,2.07-2.8,1.76-2.22,2.82-3.57,2.82-7.07,0-4.98-4.05-9.03-9.03-9.03s-9.03,4.05-9.03,9.03c0,3.51,1.06,4.85,2.82,7.07.62.79,1.33,1.68,2.07,2.8.62.93.98,2.04,1.13,3.49.04.37-.23.7-.6.74-.37.05-.7-.23-.74-.6-.13-1.23-.41-2.14-.91-2.88-.72-1.07-1.4-1.94-2.01-2.71-1.8-2.28-3.11-3.93-3.11-7.9,0-5.72,4.65-10.38,10.38-10.38s10.38,4.65,10.38,10.38c0,3.97-1.3,5.62-3.11,7.9-.61.77-1.3,1.64-2.01,2.71-.49.74-.78,1.65-.91,2.88-.03.35-.32.6-.66.6h0ZM23.28,34.21c0-.37-.3-.67-.67-.67h-7.57c-.37,0-.67.3-.67.67s.3.67.67.67h7.57c.37,0,.67-.3.67-.67h0ZM23.28,36.77c0-.37-.3-.67-.67-.67h-7.57c-.37,0-.67.3-.67.67s.3.67.67.67h7.57c.37,0,.67-.3.67-.67h0ZM21.89,39.33c0-.37-.3-.67-.67-.67h-4.79c-.37,0-.67.3-.67.68s.3.67.67.67h4.79c.37,0,.67-.3.67-.67h0ZM13.07,17.95c0-3.27,3.09-4.56,3.23-4.61.35-.14.51-.53.38-.87-.14-.35-.53-.52-.87-.38-.17.07-4.07,1.66-4.07,5.86,0,.37.3.67.67.67.37,0,.67-.3.67-.68h0ZM5.21,18.82c0-.37-.3-.67-.67-.67H.67c-.37,0-.67.3-.67.67s.3.67.67.67h3.87c.37,0,.67-.3.67-.67ZM37.64,18.82c0-.37-.3-.67-.67-.67h-3.87c-.37,0-.67.3-.67.67s.3.67.67.67h3.87c.37,0,.67-.3.67-.67ZM6.46,32.13l2.73-2.73c.26-.26.26-.69,0-.95-.26-.26-.69-.26-.95,0l-2.73,2.73c-.26.26-.26.69,0,.95.13.13.3.2.48.2.17,0,.34-.07.48-.2ZM29.39,9.2l2.73-2.73c.26-.26.26-.69,0-.95-.26-.26-.69-.26-.95,0l-2.73,2.73c-.26.26-.26.69,0,.95.13.13.3.2.48.2s.34-.07.48-.2ZM19.49,4.54V.67c0-.37-.3-.67-.67-.67s-.67.3-.67.67v3.86c0,.37.3.67.67.67s.67-.3.67-.67ZM32.13,32.13c.26-.26.26-.69,0-.95l-2.73-2.73c-.26-.26-.69-.26-.95,0-.26.26-.26.69,0,.95l2.73,2.73c.13.13.3.2.48.2.17,0,.34-.07.48-.2ZM9.2,9.2c.26-.26.26-.69,0-.95l-2.73-2.73c-.26-.26-.69-.26-.95,0-.26.26-.26.69,0,.95l2.73,2.73c.13.13.3.2.48.2s.35-.07.48-.2Z"/>
  </g>
</svg>