<?xml version="1.0" encoding="UTF-8"?>
<svg id="Layer_2" data-name="Layer 2" xmlns="http://www.w3.org/2000/svg" viewBox="0 0 53.49 40">
  <defs>
    <style>
      .cls-1 {
        fill: #989798;
        stroke-width: 0px;
      }
    </style>
  </defs>
  <g id="Layer_1-2" data-name="Layer 1">
    <path class="cls-1" d="M26.38,40c-2.41,0-4.38-1.96-4.38-4.37,0-2.41,1.97-4.37,4.38-4.37s4.37,1.96,4.37,4.37-1.96,4.37-4.37,4.37h0ZM26.38,32.69c-1.65,0-2.94,1.29-2.94,2.94,0,1.65,1.29,2.94,2.94,2.94s2.94-1.32,2.94-2.94-1.29-2.94-2.94-2.94ZM34.89,30.74c-.73-.01-1.33-.24-1.44-.28-.06-.02-.1-.05-.14-.08-.3-.21-3.09-2.04-6.56-2.14-3.56.1-6.44,2.06-6.56,2.14-.04.03-.08.05-.14.08-.17.07-.74.27-1.44.28-.65,0-1.86-.16-2.76-1.24-1.02-1.21-.78-2.48-.68-2.84.18-.69.55-1.17.63-1.26,0,0,.08-.08.09-.08,4.46-3.84,9.91-3.95,10.51-3.95h.11c.67,0,6.68.11,11.12,3.94,0,0,.07.07.07.07.31.4.52.82.64,1.27.1.36.33,1.64-.68,2.84-.94,1.12-2.2,1.24-2.7,1.24h-.06ZM26.41,22.81c-.56,0-5.53.14-9.53,3.53-.16.2-.27.43-.34.69-.11.4-.17.88.39,1.55.55.65,1.12.73,1.57.73.42,0,.72-.08.9-.14,1.04-.68,3.85-2.27,7.32-2.36,3.81.09,6.75,1.96,7.3,2.33.11.04.43.16.89.17.54,0,1.1-.09,1.64-.73.56-.67.5-1.15.39-1.55-.09-.33-.23-.55-.29-.64-4.16-3.54-9.95-3.59-10.2-3.59v-.05h0l-.04.05ZM42.44,22.76c-.71-.01-1.28-.22-1.44-.28-.06-.02-.1-.05-.14-.08-.74-.5-7.07-4.71-13.91-4.71,0,0-.33,0-.35,0-.03,0-.33,0-.33,0-7.2,0-13.55,4.66-13.62,4.7-.05.04-.1.07-.15.08-.51.19-.98.28-1.45.28-.64,0-1.85-.16-2.76-1.24-1.01-1.21-.78-2.48-.68-2.84.2-.75.62-1.25.63-1.26,0,0,.08-.08.09-.08,6.62-5.6,15.37-6.04,17.89-6.04.28,0,.41,0,.47,0,0,0,.41,0,.63,0,2.51,0,11.22.43,17.85,6.03.02.01.05.05.08.08.1.12.46.59.64,1.27.1.36.34,1.64-.68,2.84-.94,1.12-2.2,1.24-2.7,1.24h-.06ZM26.33,12.74c-1.72,0-10.61.27-17.01,5.62-.16.21-.27.43-.33.68-.11.4-.17.88.39,1.55.55.65,1.12.73,1.57.73.46,0,.76-.09.93-.16,1.64-1.17,7.45-4.92,14.36-4.92h.37s.34,0,.34,0c7.7,0,14.3,4.68,14.58,4.88.31.12.61.18.92.19.51,0,1.1-.09,1.64-.73.56-.67.5-1.15.39-1.55-.08-.3-.21-.53-.29-.63-6.45-5.4-15.34-5.68-17.06-5.68-.24,0-.37,0-.37,0l-.11-.05v.05c-.06,0-.17,0-.33,0ZM3.48,14.95c-.5,0-1.76-.12-2.7-1.24C-.24,12.51,0,11.24.09,10.88c.2-.74.62-1.26.63-1.26.04-.03.08-.07.1-.08C8.24,4.21,14.9,1.92,19.19.92,22.65.12,25.18,0,26.38,0c.32,0,.43,0,.47,0,0,0,.35,0,.55,0,1.16,0,3.61.12,7.02.92,4.24,1,10.83,3.29,18.21,8.57.05.04.09.07.12.11.13.16.47.63.64,1.27.1.36.33,1.64-.68,2.84-.94,1.12-2.2,1.24-2.7,1.24-.79-.01-1.39-.24-1.5-.28-.07-.03-.13-.07-.18-.1-.1-.08-10.44-8.16-20.92-8.16-.17,0-.56,0-.59,0-10.88.12-21.25,7.83-21.68,8.16-.06.04-.11.07-.16.09-.13.05-.71.27-1.45.28h-.06ZM26.31,1.43c-1.11,0-3.47.11-6.79.89-4.13.96-10.56,3.17-17.7,8.25-.11.13-.25.33-.34.67-.11.4-.17.88.39,1.55.55.65,1.13.73,1.57.73.51,0,.82-.12.93-.16,1.87-1.39,11.63-8.26,22.45-8.38.19,0,.47-.01.62-.01,11.15,0,21.2,8.01,21.62,8.35.29.13.58.19.92.2.53,0,1.1-.09,1.64-.73.56-.67.5-1.15.39-1.55-.08-.31-.2-.5-.28-.61-7.21-5.15-13.56-7.36-17.64-8.31-3.28-.77-5.57-.89-6.65-.89-.35,0-.53.01-.53.01h-.13c-.07,0-.21,0-.43-.01l-.04-.05v.05Z"/>
  </g>
</svg>