<?xml version="1.0" encoding="UTF-8"?>
<svg id="Layer_2" data-name="Layer 2" xmlns="http://www.w3.org/2000/svg" viewBox="0 0 42.55 40">
  <defs>
    <style>
      .cls-1 {
        fill: #989798;
        stroke-width: 0px;
      }
    </style>
  </defs>
  <g id="Layer_1-2" data-name="Layer 1">
    <g>
      <path class="cls-1" d="M40.05,0h-9.68c-1.09,0-1.99.89-1.99,1.99v2.37c0,.35.29.65.65.65h.09v.92h-5.06c-.17,0-.34.07-.46.2l-.97,1.01-.49-.49c-.22-.22-.57-.25-.83-.07l-7.26,5.12c-.16.11-.26.28-.27.47-.01.19.05.37.19.51l3.99,3.99c.12.12.29.19.46.19h0s.04,0,.05,0c.19-.02.36-.12.47-.27l5.12-7.26c.18-.25.15-.61-.07-.83l-.45-.45.8-.83h4.79v1.02c-.81.25-1.4,1-1.4,1.89v2.88h-1.15c-1.47,0-2.66,1.2-2.66,2.66v21.68c0,1.47,1.19,2.66,2.66,2.66h10.19c1.47,0,2.66-1.19,2.66-2.65V15.66c0-1.47-1.19-2.66-2.66-2.66h-1.16v-2.88c0-.89-.59-1.63-1.39-1.88v-3.24h5.84,0c1.38,0,2.49-1.12,2.49-2.5,0-1.38-1.12-2.5-2.5-2.5ZM18.33,15.21l-2.91-2.91,6.19-4.37,1.09,1.09-4.37,6.19ZM38.13,15.66v21.68c0,.76-.62,1.37-1.37,1.37h-10.19c-.76,0-1.37-.62-1.37-1.37V15.66c0-.76.62-1.37,1.37-1.37h1.79s0,0,0,0h6.6s0,0,0,0h1.79c.76,0,1.37.62,1.37,1.37ZM34.32,13h-5.3v-2.88c0-.38.31-.7.7-.7h3.91c.38,0,.7.31.7.7v2.88ZM32.92,8.14h-2.51v-1.55s0-.01,0-.02,0-.01,0-.02v-1.55h2.51v3.13ZM40.05,3.71h-6.47s-.01,0-.02,0-.01,0-.02,0h-3.76s-.01,0-.02,0-.01,0-.02,0h-.07v-1.73c0-.38.31-.7.7-.7h9.68c.67,0,1.21.54,1.21,1.21s-.54,1.21-1.21,1.21Z"/>
      <path class="cls-1" d="M15.38,18.21c-.28-.1-.59.01-.75.26-.09.14-.12.31-.08.47.22,1.75-.04,2.98-.77,3.67-.12.11-.24.19-.37.27-.04-2.14-.73-4.23-1.99-5.98-.07-.09-.15-.17-.25-.22-.26-.13-.59-.07-.78.16-.11.13-.16.3-.15.46-.02,1.65-.34,2.88-.95,3.68-1.4-1.08-1.81-2.84-.96-4.35.03-.03.05-.08.06-.12.12-.31-.03-.66-.33-.8-.16-.08-.34-.08-.5-.02-4.38.74-7.54,4.49-7.54,8.96,0,5.01,4.08,9.09,9.08,9.09h0c5.01,0,9.09-4.07,9.08-9.08,0-2.34-.89-4.56-2.5-6.26-.07-.08-.17-.15-.28-.19ZM11.32,19.33c.55,1.23.82,2.57.79,3.92-.19.01-.37,0-.51,0-.34-.64-.8-1.14-1.28-1.52.47-.63.8-1.43.99-2.39ZM16.87,24.65c0,4.3-3.49,7.79-7.79,7.79s-7.79-3.49-7.79-7.79c0-3.47,2.22-6.43,5.43-7.43h0c-.46,1.93.38,3.97,2.25,5.13.77.47,1.3,1.04,1.58,1.7,0,.03.02.06.03.08.39,1,.23,2.21-.49,3.61-.16.32-.03.7.28.86.32.16.71.03.87-.28.77-1.52.95-2.77.79-3.78.75-.02,1.78-.21,2.6-.97.7-.65,1.11-1.57,1.23-2.75.65,1.16,1,2.47,1,3.83Z"/>
      <path class="cls-1" d="M4.46,14.29c1.24,0,2.25-1.01,2.25-2.25,0-1.24-1.01-2.25-2.25-2.25s-2.25,1.01-2.25,2.25,1,2.25,2.25,2.25ZM4.46,11.08c.53,0,.96.43.96.96s-.43.96-.96.96-.96-.43-.96-.96.43-.96.96-.96Z"/>
      <path class="cls-1" d="M10.69,12.6c1.24,0,2.25-1.01,2.25-2.25s-1.01-2.25-2.25-2.25-2.25,1.01-2.25,2.25,1,2.25,2.25,2.25ZM10.69,9.38c.54,0,.96.43.96.96s-.43.96-.96.96-.96-.43-.96-.96.43-.96.96-.96Z"/>
    </g>
  </g>
</svg>