<?xml version="1.0" encoding="UTF-8"?>
<svg id="Layer_2" data-name="Layer 2" xmlns="http://www.w3.org/2000/svg" viewBox="0 0 42.36 39.4">
  <defs>
    <style>
      .cls-1 {
        fill: #989798;
        stroke-width: 0px;
      }
    </style>
  </defs>
  <g id="Layer_1-2" data-name="Layer 1">
    <g>
      <path class="cls-1" d="M12.62,11.81c-2.79,0-5.06-2.27-5.06-5.06S9.83,1.68,12.62,1.68s5.06,2.27,5.06,5.06-2.27,5.06-5.06,5.06ZM12.62,3.13c-2,0-3.62,1.62-3.62,3.62s1.62,3.62,3.62,3.62,3.62-1.62,3.62-3.62-1.62-3.62-3.62-3.62Z"/>
      <path class="cls-1" d="M12.49,38.98c-.4,0-.72-.32-.72-.72v-5.46c0-.4.32-.72.72-.72s.72.32.72.72v5.46c0,.4-.32.72-.72.72Z"/>
      <path class="cls-1" d="M17.98,39.4c-.4,0-.72-.32-.72-.72v-17.16h-1.66c-1.06,0-1.92-.86-1.92-1.92,0-.9.64-1.69,1.52-1.88l4.79-1.08c.05-.01.11-.02.16-.02.34,0,.63.23.7.56.04.19,0,.38-.1.55-.1.16-.26.27-.45.32l-4.79,1.08c-.23.05-.39.24-.39.47,0,.26.21.47.47.47h8.48c.3,0,.43-.22.47-.31.04-.09.1-.33-.1-.54l-3.3-3.3c-1.16-1.17-2.71-1.81-4.36-1.81h-8.08c-1.65,0-3.2.64-4.36,1.81l-1.77,1.77c-.73.73-1.13,1.69-1.13,2.72s.4,2,1.13,2.72l4.09,4.09v-5.43l-.26-.03c-.16-.02-.3-.09-.42-.21-.14-.14-.21-.32-.21-.51s.08-.37.21-.51l.59-.59c.17-.17.39-.26.63-.26.12,0,.23.02.34.07.34.14.55.46.55.83v17.72c0,.4-.32.72-.72.72h-2.14c-.4,0-.72-.32-.72-.72s.32-.72.72-.72h1.41v-8.51l-.2-.07c-.08-.03-.16-.08-.23-.15l-4.68-4.68c-1-1-1.55-2.33-1.55-3.75s.55-2.74,1.55-3.75l1.77-1.77c1.44-1.44,3.35-2.23,5.39-2.23h8.08c2.03,0,3.95.79,5.38,2.23l3.29,3.29c.52.52.7,1.25.49,1.94l-.12.39h5.94v-3.34l-.18-.08c-.44-.18-1.32-.6-2.19-1.29-1.72-1.35-2.58-3.09-2.48-5.04.22-4.62,5.83-6.34,6.07-6.41h.1s.15-.09.15-.09c.83-.74,1.9-1.97,2.29-3.64.07-.32.33-.56.65-.62.05,0,.1-.01.15-.01.27,0,.52.13.67.36.6.9,3.46,5.64.39,10.53-1.8,2.88-3.16,4.67-4.04,5.33l-.12.09v4.21h8.04c.61,0,1.1.5,1.1,1.1v4.76c0,.61-.5,1.1-1.1,1.1h-.47l-.82,10.06c-.06.77-.72,1.38-1.49,1.38h-13.36c-.77,0-1.43-.6-1.49-1.38l-.82-10.04-.25-.03c-.56-.06-.98-.53-.98-1.1v-4.87h-2.87v16.44h1.21c.4,0,.72.32.72.72s-.32.72-.72.72h-1.93ZM25.06,37.47h13.46l.81-9.99h-2.62c-.4,0-.72-.32-.72-.72s.32-.72.72-.72h4.21v-4.08h-17.89v4.08h8.09c.4,0,.72.32.72.72s-.32.72-.72.72h-6.85l.81,9.99ZM30.09,7.58c-1.1.96-1.69,2.06-1.75,3.27-.07,1.47.57,2.76,1.91,3.82l.81.64-.31-.96c-.27-.77-.47-1.53-.6-2.25-.25-1.39-.1-2.84.41-4.19l-.48-.33ZM36.16,2.92c-.67,1.21-1.57,2.1-2.21,2.64-1.87,1.56-2.78,3.98-2.37,6.3.16.88.43,1.8.81,2.73l.18.43.32-.34c.55-.58,1.57-1.85,3.26-4.55,1.71-2.72,1.24-5.4.55-7.17l-.23-.59-.31.56Z"/>
      <path class="cls-1" d="M1.63,38.92c-.4,0-.72-.32-.72-.72s.32-.72.72-.72h1.33c.4,0,.72.32.72.72s-.32.72-.72.72h-1.33Z"/>
    </g>
  </g>
</svg>