<?xml version="1.0" encoding="UTF-8"?>
<svg id="Layer_2" data-name="Layer 2" xmlns="http://www.w3.org/2000/svg" viewBox="0 0 39.98 40">
  <defs>
    <style>
      .cls-1 {
        fill: #989798;
        stroke-width: 0px;
      }
    </style>
  </defs>
  <g id="Layer_1-2" data-name="Layer 1">
    <g>
      <path class="cls-1" d="M24.53,6.41c.19-.04.35-.15.46-.31.11-.16.14-.35.1-.54-.07-.34-.36-.58-.71-.58-.05,0-.1,0-.14.01-1.73.35-3.26,1.39-4.22,2.87-.96-1.48-2.48-2.52-4.22-2.87-.05,0-.1-.01-.14-.01-.34,0-.64.24-.71.58-.08.39.17.77.56.85,1.44.29,2.68,1.17,3.42,2.43-1.35.3-2.13,1.2-2.13,2.47-.04,1.04.3,2.05.96,2.86-.8.47-1.37,1.29-1.53,2.21-2.36.76-9.87,3.31-11.74,5.71-.54.78-.62,1.8-.21,2.65.3.61,1.11,1.63,3.27,1.63,4.19,0,7.33-4.28,8.88-6.96.04.09.08.18.12.26.12.24.37.4.64.4.11,0,.22-.03.33-.08.17-.09.3-.24.36-.42.06-.18.04-.38-.06-.57-.14-.25-.21-.54-.21-.82v-1.25c0-.98.79-1.77,1.77-1.77h1.24c.29,0,.57.08.83.22.09.04.19.06.29.06.29,0,.55-.17.66-.43.13-.28.05-.61-.17-.82.67-.81,1.01-1.82.97-2.87,0-1.27-.77-2.17-2.13-2.47.74-1.26,1.98-2.14,3.42-2.43ZM7.57,24.91c-1.03,0-1.72-.28-1.97-.82-.17-.37-.15-.8.05-1.13,1.15-1.48,5.79-3.44,9.84-4.83-1.21,2.21-4.17,6.78-7.92,6.78ZM21.8,11.31c0,.4-.09,2.39-1.77,2.39s-1.77-1.99-1.77-2.39c0-.31,0-1.15,1.77-1.15s1.77.83,1.77,1.15Z"/>
      <path class="cls-1" d="M28.84,7.57c0-.19-.08-.37-.22-.51-.14-.13-.31-.2-.5-.2s-.37.07-.5.2l-1.25,1.25c-.14.13-.21.32-.21.51v1.25c0,.4.32.72.72.72s.72-.32.72-.72l-.03-.92,1.06-1.06c.13-.14.21-.32.2-.51Z"/>
      <path class="cls-1" d="M13.69,8.31l-1.25-1.25c-.14-.13-.31-.2-.5-.2-.2,0-.38.08-.52.22-.27.28-.27.72,0,1l1.03.99v2.23c0,.19.07.38.21.51l2.49,2.49c.14.13.31.2.5.2s.38-.08.52-.22c.27-.28.27-.72,0-1l-2.28-2.24v-2.23c0-.19-.08-.38-.21-.51Z"/>
      <path class="cls-1" d="M27.6,30.98v-4.1c0-.14-.04-.28-.12-.4l-1.25-1.87c-.13-.2-.36-.32-.6-.32-.14,0-.28.04-.4.12-.16.11-.27.27-.31.46-.04.19,0,.38.11.54l1.12,1.65v4.17c0,.19.07.37.21.51l2.49,2.49c.14.13.31.2.5.2s.38-.08.52-.22c.27-.28.27-.72,0-1l-2.28-2.24Z"/>
      <path class="cls-1" d="M22.59,20.27c-.05,0-.11,0-.16.02-.39.09-.63.48-.54.87.36,1.67.54,3.39.53,5.11,0,2.53-.84,5.01-2.39,7-1.47-1.89-2.31-4.24-2.38-6.63-.01-.39-.33-.7-.74-.7-.4.01-.71.35-.7.74.05,3.06,1.23,5.97,3.33,8.21.13.13.31.2.5.2s.36-.07.5-.2c2.2-2.34,3.38-5.4,3.34-8.62.01-1.82-.18-3.65-.57-5.43-.08-.33-.37-.56-.7-.56Z"/>
      <path class="cls-1" d="M35.55,22.08c-1.41-1.8-5.95-3.69-9.52-4.95-.08-.03-.16-.04-.24-.04-.3,0-.58.19-.68.48-.07.18-.06.38.03.55.08.17.23.31.41.37,4.72,1.68,7.96,3.31,8.86,4.47.21.35.23.78.06,1.14-.26.53-.94.81-1.97.81-3.42,0-6.17-3.79-7.51-6.05-.13-.22-.37-.35-.62-.35-.13,0-.26.03-.37.1-.17.1-.28.26-.33.44s-.02.38.08.55c1.83,3.08,4.83,6.76,8.76,6.76,2.16,0,2.98-1.02,3.27-1.63.41-.86.34-1.87-.21-2.65Z"/>
      <path class="cls-1" d="M13.8,28.65c-.4,0-.72.32-.72.72l.03,1.54-2.31,2.31c-.14.13-.22.31-.22.51,0,.19.07.38.2.51.14.14.32.22.52.22s.37-.07.52-.22l2.49-2.49c.14-.14.21-.32.21-.51v-1.87c0-.4-.32-.72-.72-.72Z"/>
      <path class="cls-1" d="M34.19,5.87c-.14-.14-.32-.21-.51-.21s-.38.08-.51.21L6.4,32.64c-3.35-3.61-5.1-8.31-4.94-13.23.16-4.96,2.25-9.56,5.87-12.95,3.46-3.23,7.97-5.01,12.7-5.01,4.08,0,7.96,1.3,11.21,3.77.13.1.28.15.44.15.22,0,.43-.1.57-.28.24-.31.19-.77-.14-1.02C28.68,1.44,24.41,0,20.02,0,8.99,0,0,8.98,0,20.01c0,5.34,2.07,10.36,5.84,14.14l.08.07c3.77,3.72,8.77,5.78,14.07,5.78h0c5.4,0,10.46-2.11,14.25-5.95,7.68-7.78,7.66-20.42-.04-28.18ZM32.73,33.6c-3.46,3.23-7.97,5.02-12.71,5.02s-9.17-1.76-12.6-4.95L33.67,7.41c6.93,7.48,6.52,19.21-.94,26.19Z"/>
    </g>
  </g>
</svg>