<?xml version="1.0" encoding="UTF-8"?>
<svg id="Layer_2" data-name="Layer 2" xmlns="http://www.w3.org/2000/svg" viewBox="0 0 40 40">
  <defs>
    <style>
      .cls-1 {
        fill: #989798;
        stroke-width: 0px;
      }
    </style>
  </defs>
  <g id="Layer_1-2" data-name="Layer 1">
    <path class="cls-1" d="M24.72,40c-.35,0-.67-.2-.84-.51-.4-.67-.94-1.21-1.59-1.6-.7-.41-1.49-.63-2.29-.63-1.58,0-3.07.84-3.87,2.2-.18.32-.51.51-.85.52-.15,0-.31-.04-.46-.13-.45-.26-.61-.84-.35-1.29.76-1.31,1.97-2.31,3.4-2.82l1.19-.42v-6.87l-1.3-.36c-1.4-.39-2.69-1.14-3.72-2.17l-.97-.96-6.07,3.54.23,1.23c.27,1.47,0,3.01-.73,4.32-.16.28-.47.46-.81.46-.33,0-.64-.18-.81-.47-.16-.29-.16-.66,0-.96.37-.65.56-1.39.57-2.14.02-1.2-.44-2.34-1.28-3.2-.84-.86-1.96-1.34-3.16-1.36-.37,0-.69-.19-.87-.48-.08-.13-.12-.29-.12-.45,0-.52.42-.95.94-.95,1.51,0,2.98.55,4.14,1.54l.97.81,6.1-3.52-.32-1.3c-.34-1.33-.34-2.73,0-4.05l.32-1.31-6.11-3.52-.96.82c-1.16.98-2.63,1.53-4.15,1.53-.17,0-.33-.04-.48-.13-.45-.26-.6-.84-.34-1.29.17-.29.49-.47.84-.47.81,0,1.57-.22,2.24-.6,2.15-1.24,2.89-4,1.65-6.15-.16-.29-.16-.66,0-.95.16-.28.47-.46.81-.46.33,0,.64.18.81.47.75,1.31,1.02,2.86.74,4.36l-.2,1.22,6.06,3.53.97-.97c1.03-1.03,2.32-1.78,3.72-2.17l1.3-.36v-6.87l-1.18-.42c-1.43-.51-2.64-1.51-3.41-2.83-.08-.14-.12-.3-.12-.47C14.35.43,14.77,0,15.29,0c.35,0,.67.19.84.5.39.66.94,1.2,1.58,1.59.7.41,1.49.63,2.29.63,1.58,0,3.07-.84,3.87-2.2.18-.32.51-.51.85-.52.15,0,.31.04.46.13.22.13.37.33.44.57.07.24.03.5-.09.72-.76,1.31-1.97,2.31-3.4,2.82l-1.19.43v6.89l1.3.36c1.4.39,2.69,1.14,3.72,2.17l.97.97,6.07-3.54-.23-1.23c-.27-1.49,0-3.04.75-4.36.16-.29.48-.47.81-.47.31,0,.62.2.78.49.17.31.17.68,0,.98-.37.65-.56,1.39-.57,2.14-.02,1.2.44,2.34,1.28,3.2.84.86,1.96,1.34,3.16,1.36.37,0,.69.19.87.48.08.13.12.29.12.45,0,.25-.09.49-.27.67-.18.18-.41.28-.67.28-1.51,0-2.98-.55-4.14-1.54l-.96-.82-6.1,3.52.32,1.3c.35,1.33.35,2.73,0,4.05l-.32,1.31,6.1,3.52.96-.82c1.16-.98,2.63-1.53,4.15-1.53.17,0,.33.04.48.13.22.13.37.33.44.58.06.24.03.5-.1.72-.17.29-.49.47-.84.47-.81,0-1.56.22-2.23.6-2.15,1.24-2.89,4-1.65,6.15.16.29.16.66,0,.96-.16.28-.48.46-.81.46-.33,0-.64-.18-.81-.47-.75-1.31-1.02-2.86-.74-4.36l.22-1.21-6.07-3.53-.96.97c-1.03,1.03-2.32,1.78-3.72,2.17l-1.3.36v6.88l1.19.41c1.43.51,2.64,1.51,3.4,2.82.08.14.12.3.12.47,0,.52-.42.94-.94.95ZM20,13.46c-3.61,0-6.54,2.93-6.54,6.54s2.93,6.54,6.54,6.54,6.54-2.93,6.54-6.54-2.93-6.54-6.54-6.54Z"/>
  </g>
</svg>