<?xml version="1.0" encoding="UTF-8"?>
<svg id="Layer_2" data-name="Layer 2" xmlns="http://www.w3.org/2000/svg" viewBox="0 0 49.17 40">
  <defs>
    <style>
      .cls-1 {
        fill: #989798;
        stroke-width: 0px;
      }
    </style>
  </defs>
  <g id="Layer_1-2" data-name="Layer 1">
    <g>
      <path class="cls-1" d="M48.43,33.78h-3.56c.28-.14.45-.45.4-.76s-.28-.57-.59-.63h0s-.94-.18-.94-.18c-.01-.02-.02-.03-.03-.05-.56-.77-.94-2.32-1.02-3.22-.02-.33-.27-.61-.6-.67h0c-.81-.16-1.74-.34-2.73-.55-.88-5.02-5.31-8.83-10.5-8.83h-8.54c-5.19,0-9.62,3.8-10.5,8.82-1,.21-1.93.4-2.72.56-.32.06-.56.33-.6.65h0c-.1.93-.45,2.45-1.03,3.24-.01.01-.02.03-.03.04l-.94.18c-.4.08-.66.47-.58.87.04.22.19.41.39.52H.74c-.41,0-.74.33-.74.74v4.74c0,.41.33.74.74.74h47.69c.2,0,.38-.08.53-.22.14-.14.22-.33.22-.53v-4.74c0-.41-.33-.74-.74-.74ZM44.06,33.78h-17.9,0c1.69-.29,3.24-1.11,3.65-2.78l14.25,2.78ZM11.4,27.37c.49-2,1.64-3.77,3.25-5.04,1.62-1.27,3.61-1.96,5.66-1.97h8.54c2.06,0,4.05.7,5.67,1.97,1.62,1.27,2.76,3.05,3.25,5.05-3.03-.62-6.27-1.28-8.01-1.48-2.28-.27-4.18.07-5.21,1.71-1.09-1.57-3.05-1.91-5.2-1.71-1.75.16-4.98.84-7.96,1.47h0ZM7.89,29.62h0c.77-.16,1.7-.35,2.69-.56l.08-.02c3.19-.67,7.03-1.5,8.82-1.66,1.36-.13,2.4,0,3.12.42.66.38,1.08,1.05,1.25,2.05.14.82,1.33.82,1.46-.01.17-1,.53-1.7,1.14-2.08.66-.42,1.68-.54,3.14-.37,1.82.21,5.68,1.01,8.9,1.67.04,0,.07.02.11.02.98.2,1.9.39,2.68.54.12.76.31,1.51.59,2.22h0s0,0,0,0l-12.57-2.45c-.22-.04-.44.02-.61.16-.17.14-.27.35-.27.57,0,1.85-2.17,2.31-3.84,2.31s-3.84-.46-3.84-2.31c0-.23-.1-.44-.28-.58s-.41-.19-.64-.14l-12.53,2.44h0c.28-.72.48-1.47.59-2.22ZM19.36,31c.41,1.67,1.95,2.49,3.65,2.78H5.11l14.25-2.78ZM47.69,38.52H1.48v-3.25h46.21v3.25Z"/>
      <polygon class="cls-1" points="41.88 31.84 41.88 31.84 41.88 31.84 41.88 31.84"/>
      <path class="cls-1" d="M24.58,18.27c2.42,0,4.75-.96,6.46-2.67,1.71-1.71,2.68-4.04,2.68-6.46s-.96-4.75-2.67-6.46c-1.71-1.71-4.04-2.68-6.46-2.68h0c-2.42,0-4.75.96-6.46,2.67-1.71,1.71-2.68,4.04-2.68,6.46s.96,4.75,2.67,6.46c1.71,1.72,4.04,2.68,6.46,2.68ZM19.17,3.72c1.44-1.43,3.38-2.24,5.41-2.24s3.98.81,5.41,2.24h0c1.44,1.43,2.24,3.38,2.24,5.41s-.81,3.98-2.24,5.41c-1.43,1.44-3.38,2.24-5.41,2.24-2.03,0-3.98-.81-5.41-2.24-1.44-1.44-2.24-3.38-2.24-5.41s.81-3.98,2.24-5.41Z"/>
    </g>
  </g>
</svg>