<?xml version="1.0" encoding="UTF-8"?>
<svg id="Layer_2" data-name="Layer 2" xmlns="http://www.w3.org/2000/svg" viewBox="0 0 37.89 40">
  <defs>
    <style>
      .cls-1 {
        fill: #989798;
        stroke-width: 0px;
      }
    </style>
  </defs>
  <g id="Layer_1-2" data-name="Layer 1">
    <path class="cls-1" d="M35.78,0H2.1C.95,0,0,.95,0,2.1v18.24c0,1.16.95,2.1,2.1,2.1h6.31v5.69c0,.44.13.86.39,1.21l1.59,2.26c.08.12.13.26.13.41v1.66c-.77,0-1.4.63-1.4,1.4v2.81c0,.77.63,1.4,1.4,1.4h16.61c.92.44,1.95.7,3.04.7,3.87,0,7.02-3.15,7.02-7.02s-3.15-7.02-7.02-7.02c-.24,0-.47.01-.7.04v-3.54h6.31c1.16,0,2.1-.95,2.1-2.1V2.1C37.89.95,36.94,0,35.78,0ZM8.42,18.24h-1.47c-.28-1.38-1.36-2.46-2.74-2.74V6.95c1.38-.28,2.46-1.36,2.74-2.74h24c.28,1.38,1.36,2.46,2.74,2.74v8.56c-1.38.28-2.46,1.36-2.74,2.74h-15.51c0-1.94-1.57-3.51-3.51-3.51s-3.51,1.57-3.51,3.51ZM10.52,35.08h12.95c.34,1.07.93,2.03,1.69,2.81h-14.64v-2.81ZM35.78,32.98c0,3.09-2.52,5.61-5.61,5.61s-5.61-2.52-5.61-5.61,2.52-5.61,5.61-5.61,5.61,2.52,5.61,5.61ZM28.07,26.28c-2.84.9-4.91,3.56-4.91,6.69,0,.24.01.47.04.7h-11.26v-1.66c0-.44-.13-.86-.39-1.21l-1.59-2.26c-.08-.12-.13-.26-.13-.41v-9.9c0-1.16.95-2.1,2.1-2.1s2.1.95,2.1,2.1v5.14c0,.58.34,1.09.88,1.31l1.59.64c.62.25,1.03.85,1.03,1.52v2.45c0,.39.32.7.7.7s.7-.32.7-.7v-2.45c0-1.25-.75-2.36-1.92-2.83l-1.59-.64v-.93h12.63v3.83h0ZM36.48,20.35c0,.39-.32.7-.7.7H15.44v-1.4h16.14c.39,0,.7-.32.7-.7,0-1.16.95-2.1,2.1-2.1.39,0,.7-.32.7-.7V6.31c0-.39-.32-.7-.7-.7-1.16,0-2.1-.95-2.1-2.1,0-.39-.32-.7-.7-.7H6.31c-.39,0-.7.32-.7.7,0,1.16-.95,2.1-2.1,2.1-.39,0-.7.32-.7.7v9.82c0,.39.32.7.7.7,1.16,0,2.1.95,2.1,2.1,0,.39.32.7.7.7h2.1v1.4H2.1c-.39,0-.7-.32-.7-.7V2.1c0-.39.32-.7.7-.7h33.68c.39,0,.7.32.7.7v18.24ZM18.94,15.44c2.32,0,4.21-1.89,4.21-4.21s-1.89-4.21-4.21-4.21-4.21,1.89-4.21,4.21,1.89,4.21,4.21,4.21ZM18.94,8.42c1.55,0,2.81,1.26,2.81,2.81s-1.26,2.81-2.81,2.81-2.81-1.26-2.81-2.81,1.26-2.81,2.81-2.81ZM9.82,8.42c-1.55,0-2.81,1.26-2.81,2.81s1.26,2.81,2.81,2.81,2.81-1.26,2.81-2.81-1.26-2.81-2.81-2.81ZM9.82,12.63c-.77,0-1.4-.63-1.4-1.4s.63-1.4,1.4-1.4,1.4.63,1.4,1.4-.63,1.4-1.4,1.4ZM28.07,14.03c1.55,0,2.81-1.26,2.81-2.81s-1.26-2.81-2.81-2.81-2.81,1.26-2.81,2.81,1.26,2.81,2.81,2.81ZM28.07,9.82c.77,0,1.4.63,1.4,1.4s-.63,1.4-1.4,1.4-1.4-.63-1.4-1.4.63-1.4,1.4-1.4ZM27.2,34.96l1.99-1.99-1.99-1.99c-.27-.27-.27-.72,0-.99s.72-.27.99,0l1.99,1.99,1.99-1.99c.27-.27.72-.27.99,0s.27.72,0,.99l-1.99,1.99,1.99,1.99c.27.27.27.72,0,.99-.14.14-.32.2-.5.2s-.36-.07-.5-.2l-1.99-1.99-1.99,1.99c-.14.14-.32.2-.5.2s-.36-.07-.5-.2c-.27-.27-.27-.72,0-.99h.01Z"/>
  </g>
</svg>