<?xml version="1.0" encoding="UTF-8"?>
<svg id="Layer_2" data-name="Layer 2" xmlns="http://www.w3.org/2000/svg" viewBox="0 0 40 40">
  <defs>
    <style>
      .cls-1 {
        fill: #989798;
        stroke-width: 0px;
      }
    </style>
  </defs>
  <g id="Layer_1-2" data-name="Layer 1">
    <g>
      <path class="cls-1" d="M20,7.78c-6.74,0-12.22,5.48-12.22,12.22s5.48,12.22,12.22,12.22,12.22-5.48,12.22-12.22-5.48-12.22-12.22-12.22ZM20,30c-5.51,0-10-4.49-10-10s4.49-10,10-10,10,4.49,10,10-4.49,10-10,10Z"/>
      <path class="cls-1" d="M20,5.56c.61,0,1.11-.5,1.11-1.11V1.11c0-.61-.5-1.11-1.11-1.11s-1.11.5-1.11,1.11v3.33c0,.61.5,1.11,1.11,1.11Z"/>
      <path class="cls-1" d="M11.26,7.09c.21.36.58.56.96.56.19,0,.38-.05.56-.15.53-.31.71-.99.41-1.52l-1.67-2.89c-.31-.53-.99-.72-1.52-.41-.53.31-.71.99-.41,1.52l1.67,2.89h0Z"/>
      <path class="cls-1" d="M7.09,11.26l-2.89-1.67c-.53-.31-1.21-.12-1.52.41-.31.53-.12,1.21.41,1.52l2.89,1.67c.17.1.37.15.56.15.38,0,.76-.2.96-.56.31-.53.12-1.21-.41-1.52h0Z"/>
      <path class="cls-1" d="M1.11,21.11h3.33c.61,0,1.11-.5,1.11-1.11s-.5-1.11-1.11-1.11H1.11c-.61,0-1.11.5-1.11,1.11s.5,1.11,1.11,1.11Z"/>
      <path class="cls-1" d="M5.98,26.82l-2.89,1.67c-.53.31-.71.99-.41,1.52.21.36.58.56.96.56.19,0,.38-.05.56-.15l2.89-1.67c.53-.31.71-.99.41-1.52-.31-.53-.99-.72-1.52-.41h0Z"/>
      <path class="cls-1" d="M12.78,32.51c-.53-.31-1.21-.12-1.52.41l-1.67,2.89c-.31.53-.13,1.21.41,1.52.17.1.37.15.56.15.38,0,.76-.2.96-.56l1.67-2.89c.31-.53.13-1.21-.41-1.52h0Z"/>
      <path class="cls-1" d="M20,34.44c-.61,0-1.11.5-1.11,1.11v3.33c0,.61.5,1.11,1.11,1.11s1.11-.5,1.11-1.11v-3.33c0-.61-.5-1.11-1.11-1.11Z"/>
      <path class="cls-1" d="M28.74,32.91c-.31-.53-.99-.72-1.52-.41-.53.31-.71.99-.41,1.52l1.67,2.89c.21.36.58.56.96.56.19,0,.38-.05.56-.15.53-.31.71-.99.41-1.52l-1.67-2.89h0Z"/>
      <path class="cls-1" d="M36.91,28.48l-2.89-1.67c-.53-.31-1.21-.12-1.52.41-.31.53-.12,1.21.41,1.52l2.89,1.67c.18.1.37.15.56.15.38,0,.76-.2.96-.56.31-.53.12-1.21-.41-1.52h0Z"/>
      <path class="cls-1" d="M38.89,18.89h-3.33c-.61,0-1.11.5-1.11,1.11s.5,1.11,1.11,1.11h3.33c.61,0,1.11-.5,1.11-1.11s-.5-1.11-1.11-1.11Z"/>
      <path class="cls-1" d="M33.47,13.33c.19,0,.38-.05.56-.15l2.89-1.67c.53-.31.71-.99.41-1.52-.31-.53-.99-.72-1.52-.41l-2.89,1.67c-.53.31-.71.99-.41,1.52.21.36.58.56.96.56h0Z"/>
      <path class="cls-1" d="M27.22,7.49c.18.1.37.15.56.15.38,0,.76-.2.96-.56l1.67-2.89c.31-.53.12-1.21-.41-1.52-.53-.31-1.21-.12-1.52.41l-1.67,2.89c-.31.53-.12,1.21.41,1.52h0Z"/>
    </g>
  </g>
</svg>