<?xml version="1.0" encoding="UTF-8"?>
<svg id="Layer_2" data-name="Layer 2" xmlns="http://www.w3.org/2000/svg" viewBox="0 0 40 40">
  <defs>
    <style>
      .cls-1 {
        fill: #989798;
        stroke-width: 0px;
      }
    </style>
  </defs>
  <g id="Layer_1-2" data-name="Layer 1">
    <g>
      <path class="cls-1" d="M39.37,32.54h-2.32c.23-.67.38-1.6-.04-2.44-.43-.88-1.36-1.44-2.75-1.66-.13-.72-.5-1.97-1.56-2.64-.83-.53-1.89-.57-3.13-.15-.54-.82-1.8-2.36-3.56-2.22-.35.03-.61.33-.58.68.03.35.33.61.68.58,1.25-.1,2.33,1.43,2.64,2.03.15.3.5.42.81.29,1.07-.46,1.9-.51,2.48-.15.95.59,1.04,2.15,1.04,2.17.01.31.26.57.57.6.83.08,1.9.32,2.25,1.03.29.59.04,1.4-.18,1.88h-3.05c-.35,0-.63.28-.63.63s.28.63.63.63h6.71c.35,0,.63-.28.63-.63s-.28-.63-.63-.63Z"/>
      <path class="cls-1" d="M11.37,33.8h0c.35,0,.63-.28.63-.63s-.28-.63-.63-.63h-.53s-.04,0-.06,0h-6.51c-.36-.9-.38-1.61-.06-2.12.6-.95,2.31-1.17,2.93-1.17.33,0,.6-.25.63-.58.06-.84.31-1.39.74-1.62.74-.41,2,.1,2.42.33.19.1.42.1.61,0,.3-.17.62-.28.96-.34.35-.05.59-.36.54-.71-.05-.35-.36-.59-.71-.54-.38.05-.76.16-1.1.33-.33-.15-.89-.37-1.52-.45v-4.77c.96-.19,1.7-.77,2.12-1.68,0,0,0-.02.01-.03.14-.32,0-.69-.33-.83-.32-.14-.69,0-.83.33-.21.46-.54.76-.98.91v-4.6c0-.35-.28-.63-.63-.63s-.63.28-.63.63v2.34c-.52-.11-.81-.46-.92-1.07-.06-.34-.39-.57-.74-.5s-.57.39-.5.74c.23,1.22,1,1.96,2.16,2.11v7.11c-.18.05-.37.12-.54.21-.7.38-1.15,1.08-1.33,2.09-.89.09-2.62.44-3.43,1.72-.48.76-.55,1.71-.21,2.8H.63C.28,32.54,0,32.82,0,33.17s.28.63.63.63h10.74Z"/>
      <path class="cls-1" d="M15.23,2.91c-.2,1.01-.18,2.28.09,2.82.19.38.54.66.96.75.12.03.25.05.38.04.11.21.32.34.56.34.02,0,.04,0,.06,0,0,0,0,0,0,0,.35-.03.6-.34.57-.69-.02-.24-.1-.48-.22-.69-.13-.22-.39-.34-.65-.3-.2.03-.31.06-.39.08h-.04s-.08-.05-.1-.09c-.09-.21-.16-1.16.01-2.01h.02c.31,0,.59-.22.64-.53.06-.34-.17-.67-.51-.73h-.04c.22-.19.46-.35.72-.46.91-.42,1.41-.03,1.48.04.13.15.33.21.53.18.12,0,.23.04.32.12.19.16.31.49.34.96.06,1-.32,1.41-.52,1.55-.1-.02-.2-.06-.28-.11.05-.25.03-.52-.06-.76-.13-.31-.47-.47-.79-.36-.33.11-.5.47-.39.8,0,.01,0,.02.01.03-.14.18-.17.41-.08.62.13.31.53.83,1.3,1.01.11.43.3.84.55,1.22-.01,0-.03.01-.04.02-.3.14-.45.49-.33.8.13.32.49.48.82.36.31-.13.68,0,.83.3l2.21,4.39c.28.55.1,1.21-.41,1.55l-3.4,2.17-.23-.35,2.56-2.36c.21-.19.26-.49.14-.74l-1.07-2.17c-.16-.27-.49-.38-.78-.26-.32.13-.48.5-.34.82l.86,1.74-2.6,2.4c-.2.18-.25.46-.16.7.02.07.04.14.08.2l1.15,1.79c.12.18.32.29.53.29.12,0,.24-.03.35-.1.29-.19.37-.58.19-.87v-.02s3.42-2.19,3.42-2.19c1.05-.69,1.42-2.05.85-3.17l-2.21-4.39c-.14-.28-.34-.51-.58-.68-.14-.19-.3-.36-.46-.53-.34-.36-.59-.79-.71-1.27.44-.39.95-1.15.86-2.5-.05-.84-.32-1.46-.8-1.85-.28-.23-.63-.37-.99-.4-.41-.28-1.35-.73-2.68-.11-.57.25-1.07.63-1.46,1.11-.28.38-.34.87-.16,1.31.03.06.06.12.1.18Z"/>
      <path class="cls-1" d="M5.95,23.04c.25.24.65.24.89-.01s.24-.65-.01-.89c-1.25-1.2-1.88-2.51-1.88-3.91,0-1.17.49-2.59,1.28-3.69.83-1.16,1.87-1.83,2.85-1.83s2.02.66,2.85,1.82c.79,1.11,1.28,2.52,1.28,3.69,0,1.35-.66,2.67-1.95,3.91-.12.12-.19.28-.19.45,0,.35.28.63.63.63.16,0,.32-.06.44-.17,1.53-1.46,2.34-3.13,2.34-4.81,0-1.44-.56-3.1-1.51-4.42-1.08-1.52-2.46-2.35-3.88-2.35s-2.79.84-3.88,2.35c-.95,1.33-1.51,2.98-1.51,4.42,0,1.73.78,3.39,2.26,4.81Z"/>
      <path class="cls-1" d="M30.28,34.51l-5.83-7.28-1.31-7.26c.03-.08.05-.17.04-.26-.04-.61-.11-1.61-.12-1.77,0-.09-.02-.18-.05-.26-.14-.32-.51-.47-.83-.33-.18.08-.4.26-.38.69,0,.05,0,.12.01.21.01.17.03.4.04.63,0,.13.02.27.03.39-1.23.3-3.46.74-4.86.55-.16-1.7-.64-7.78.57-11.08,0-.01,0-.02.01-.03.11-.33-.07-.69-.4-.8-.33-.11-.69.07-.8.4-1.52,4.12-.63,11.79-.59,12.11,0,.03,0,.06.02.09-.29,1.23-.93,3.86-1.88,6.9-.01.03-.02.07-.02.1-.15,1.1-.24,2.32-.34,3.61-.13,1.78-.28,3.79-.63,5.83l-1.82,1.37c-.24.18-.38.46-.38.75,0,.52.42.94.94.94h0l3.92-.04c.33,0,.6-.26.63-.59l.12-1.89s0-.02,0-.04c0-.05.84-4.76,1.66-8.87.04-.11.12-.4.36-1.18.09-.32-.09-.66-.41-.77-.33-.11-.69.07-.79.4-.14.45-.35,1.14-.37,1.2,0,.02-.01.05-.02.07-.67,3.33-1.34,7.07-1.58,8.41h-.96c.31-1.94.45-3.83.57-5.51.09-1.25.18-2.43.32-3.48.88-2.83,1.5-5.31,1.82-6.64.26.03.53.04.79.04,1.49,0,3.21-.35,4.17-.58l1.27,7.07c.02.1.06.2.13.28l5.56,6.95-.77.64c-.87-.81-1.89-1.78-2.85-2.73-.02-.03-.05-.05-.07-.07-1.66-1.63-3.14-3.18-3.4-3.7-.57-1.15-1.75-4.1-2.19-5.34-.12-.31-.46-.48-.78-.38-.33.11-.51.46-.41.79.46,1.3,1.65,4.28,2.25,5.49.27.55,1.36,1.73,2.6,2.99h-3.27c-.35,0-.63.28-.63.63s.28.63.63.63h4.54c1.21,1.18,2.36,2.26,2.89,2.76l-.38,2.32c-.06.38.12.76.46.95.14.08.29.12.45.12h0c.22,0,.43-.09.6-.23l3.12-2.73s.01-.01.02-.02c.25-.24.27-.64.03-.89l-1.47-1.56ZM15.06,38.71l-2.37.02.97-.73,1.45-.02-.05.73ZM23.06,17.98c-.02.23-.16.42-.37.51.21-.09.35-.29.37-.51ZM28.48,38.13l.24-1.48,1.04-.86.63.67-1.91,1.67Z"/>
    </g>
  </g>
</svg>