<?xml version="1.0" encoding="UTF-8"?>
<svg id="Layer_2" data-name="Layer 2" xmlns="http://www.w3.org/2000/svg" viewBox="0 0 47.26 40">
  <defs>
    <style>
      .cls-1 {
        fill: #989798;
        stroke-width: 0px;
      }
    </style>
  </defs>
  <g id="Layer_1-2" data-name="Layer 1">
    <g>
      <path class="cls-1" d="M23.56,22.53c-3.74,0-8.12-2.13-8.12-8.12,0-4.39,4.64-11.08,6.63-13.75.34-.42.89-.67,1.48-.67s1.14.25,1.49.72c2.47,3.33,6.63,9.56,6.63,13.75,0,5.57-4.08,8.07-8.12,8.07ZM22.84,3.05c-2.02,2.85-5.43,8.14-5.49,11.4,0,4.51,3.18,6.11,6.15,6.11s6.15-1.6,6.15-6.1c0-3.16-2.93-7.96-5.4-11.43l-.71-1.06-.72,1.08Z"/>
      <path class="cls-1" d="M23.5,17.05c-2.33,0-2.63-1.35-2.63-2.53,0-.66.34-1.73.96-3.04.04-.09.11-.13.17-.13h.04s.06.02.06.02c.05,0,.13.05.13.15.08,1.7.4,3.96,1.46,5.22.04.05.06.11.02.19-.03.05-.14.12-.21.12Z"/>
      <path class="cls-1" d="M38.69,31.42c-2.21,0-3.39-1.01-4.35-1.83l-.13-.11c-.9-.85-1.61-1.42-3.04-1.42s-2.1.58-2.93,1.31l-.12.11c-1.05.89-2.27,1.93-4.47,1.93-2.31,0-3.55-1.11-4.46-1.92-.91-.86-1.62-1.43-3.05-1.43s-2.1.58-2.93,1.31l-.12.11c-1.05.89-2.27,1.93-4.47,1.93-2.31,0-3.56-1.11-4.46-1.92-.91-.86-1.62-1.43-3.05-1.43-.59,0-1.06-.47-1.06-1.06s.49-1.06,1.06-1.06c2.31,0,3.55,1.11,4.46,1.92.91.86,1.62,1.43,3.05,1.43s2.1-.58,2.92-1.31l.12-.11c1.05-.89,2.26-1.93,4.47-1.93,2.31,0,3.55,1.11,4.46,1.92.91.86,1.62,1.43,3.05,1.43s2.1-.58,2.92-1.31l.12-.11c1.05-.89,2.27-1.93,4.47-1.93s3.39,1.01,4.35,1.83l.13.11c.9.85,1.61,1.42,3.04,1.42s2.13-.62,3.02-1.39l.1-.09c.98-.83,2.2-1.87,4.4-1.87.57,0,1.06.49,1.06,1.06s-.48,1.06-1.06,1.06c-1.44,0-2.14.62-3.02,1.4l-.1.08c-.98.83-2.2,1.87-4.4,1.87Z"/>
      <path class="cls-1" d="M38.69,40c-2.21,0-3.39-1.01-4.35-1.83l-.13-.11c-.9-.85-1.61-1.42-3.04-1.42s-2.1.58-2.92,1.31l-.12.11c-1.05.89-2.27,1.93-4.47,1.93-2.31,0-3.55-1.11-4.46-1.92-.91-.86-1.62-1.43-3.05-1.43s-2.1.58-2.92,1.31l-.12.11c-1.05.89-2.27,1.93-4.47,1.93-2.31,0-3.56-1.11-4.46-1.92-.91-.86-1.62-1.43-3.05-1.43-.58,0-1.08-.49-1.11-1.09,0-.54.49-1.02,1.06-1.02,2.31,0,3.56,1.11,4.46,1.92.91.86,1.62,1.43,3.05,1.43s2.18-.6,3.03-1.45c1.02-.86,2.24-1.9,4.44-1.9,2.31,0,3.55,1.11,4.46,1.92.91.86,1.62,1.43,3.05,1.43s2.07-.55,2.98-1.45c1.02-.86,2.24-1.9,4.44-1.9s3.39,1.01,4.35,1.83l.13.11c.9.85,1.61,1.42,3.04,1.42s2.14-.62,3.02-1.4l.1-.08c.98-.83,2.2-1.87,4.4-1.87.56,0,1.09.48,1.26,1.12-.04.54-.5.99-1.06.99-1.44,0-2.13.62-3.02,1.39l-.1.09c-.98.83-2.2,1.87-4.4,1.87Z"/>
    </g>
  </g>
</svg>